<svg width="61" height="40" viewBox="0 0 61 40" fill="none" xmlns="http://www.w3.org/2000/svg">
<path d="M19.4751 28.5412C13.0287 29.7129 8.40371 29.4655 7.72876 27.5851C6.66478 24.6207 15.8199 18.7204 28.1772 14.4066C40.5346 10.0927 51.4148 8.99876 52.4787 11.9632C53.1578 13.8552 49.6741 16.9431 43.852 20.0512" stroke="#364D9D" stroke-width="2"/>
<ellipse cx="29.7393" cy="19.2873" rx="14.4337" ry="14.2347" fill="#364D9D"/>
<path fill-rule="evenodd" clip-rule="evenodd" d="M23.0034 14.945C23.0034 14.3733 23.4734 13.9098 24.0531 13.9098H35.6001C36.1798 13.9098 36.6498 14.3733 36.6498 14.945V24.2623C36.6498 24.834 36.1798 25.2975 35.6001 25.2975H24.0531C23.4734 25.2975 23.0034 24.834 23.0034 24.2623V14.945ZM35.6001 14.945H24.0531V24.2623H35.6001V14.945Z" fill="#EDECEE"/>
<path fill-rule="evenodd" clip-rule="evenodd" d="M23.0034 16.498C23.0034 16.2121 23.2384 15.9803 23.5283 15.9803H36.1249C36.4148 15.9803 36.6498 16.2121 36.6498 16.498C36.6498 16.7838 36.4148 17.0156 36.1249 17.0156H23.5283C23.2384 17.0156 23.0034 16.7838 23.0034 16.498Z" fill="#EDECEE"/>
<path fill-rule="evenodd" clip-rule="evenodd" d="M27.2021 18.0508C27.492 18.0508 27.727 18.2825 27.727 18.5684C27.727 19.1175 27.9482 19.6442 28.3419 20.0325C28.7356 20.4208 29.2696 20.6389 29.8264 20.6389C30.3832 20.6389 30.9172 20.4208 31.3109 20.0325C31.7047 19.6442 31.9259 19.1175 31.9259 18.5684C31.9259 18.2825 32.1608 18.0508 32.4507 18.0508C32.7406 18.0508 32.9756 18.2825 32.9756 18.5684C32.9756 19.3921 32.6438 20.1821 32.0532 20.7645C31.4626 21.3469 30.6616 21.6742 29.8264 21.6742C28.9912 21.6742 28.1902 21.3469 27.5996 20.7645C27.009 20.1821 26.6772 19.3921 26.6772 18.5684C26.6772 18.2825 26.9122 18.0508 27.2021 18.0508Z" fill="#EDECEE"/>
<path d="M19.4751 28.5413C20.5627 28.3436 21.7022 28.1055 22.8833 27.8281M43.852 20.0512C42.7549 20.6369 41.5747 21.2233 40.3237 21.8026" stroke="#F7F7F8" stroke-width="2"/>
</svg>
